<svg xmlns="http://www.w3.org/2000/svg" width="1152.328" height="1021.057" viewBox="0 0 1152.328 1021.057"><g transform="translate(-0.178 3083)" opacity="0.12"><path d="M573.832-3030.1c0,29.116-.1,58.829-.232,66.05l-.2,13.117-13.117.2a353.167,353.167,0,0,0-54.357,4.571c-61.843,10.136-117.757,36.47-169.994,80.028-13.084,10.931-20.438,17.788-29.878,27.924-10.434,11.2-16.3,17.987-23.419,27.162-21.862,28.123-40.677,60.882-53.2,92.748-12.388,31.468-20.338,64.062-24.446,100.333a69.045,69.045,0,0,1-1.06,7.685c-.828.795-14.21,3.412-34.482,6.757-42.631,7.055-134.551,23.353-156.91,27.824-10.3,2.054-12.72,2.65-12.322,3.015.166.166,170.259-1.292,192.916-1.656l9.97-.166.2,3.876c1.292,23.353,3.379,40.378,7.486,60.584,16.2,79.465,60.154,154.856,118.784,203.681a363.337,363.337,0,0,0,76.385,48.527c25.9,12.256,47.931,21,65.851,26.1,23.684,6.757,44.42,10.9,63.267,12.621a62.6,62.6,0,0,1,8.844,1.192c1.722.629,2.219,1.656,3.047,6.161.364,1.888,2.749,13.912,5.3,26.765s7.188,36.3,10.3,52.171c7.287,37.066,12.919,64.559,14.277,69.859.2.7.464,1.159.629.994.53-.563.994-11.825.994-24.711,0-7.155.364-35.741.828-63.532s.828-53.562.828-57.305c0-4.8.133-7.022.431-7.618.53-1.06.7-1.093,20.272-1.954,19.411-.895,29.746-1.921,45.281-4.505a303.1,303.1,0,0,0,62.87-17.49c25.108-10.169,53.728-26.2,74.364-41.637,9.308-6.989,25.738-20.769,32.561-27.328,18.185-17.456,40.445-46.374,60.584-78.67,13.614-21.8,21.9-37.762,33.654-64.758,6.095-14.045,12.654-31.6,11.229-30.143-.2.165-2.915,5.1-6.062,10.931-32.064,59.524-48.163,84.7-68.866,107.654-8.148,9.043-17.655,18.052-19.046,18.052a92.448,92.448,0,0,1-7.32-7.32c-3.809-4.041-8.347-8.679-10.07-10.368-1.722-1.656-7.32-7.486-12.422-12.918-22.955-24.512-80.724-85.493-84.07-88.707-2.021-1.954-5.7-5.8-8.148-8.546-2.484-2.716-9.8-10.434-16.3-17.125-15.535-16.065-18.053-18.847-17.125-19.113.232-.066,108.283-8.215,240.085-18.086s239.886-18.02,240.151-18.119c.431-.166.431-.2,0-.3-.265-.066-126.3-10.335-280.066-22.823s-279.967-22.823-280.43-22.955c-.8-.232.464-1.491,17.854-17.788,10.269-9.672,21.166-19.941,24.214-22.856,3.014-2.948,7.122-6.724,9.142-8.447,1.987-1.723,6.393-5.83,9.772-9.109,3.379-3.312,6.956-6.625,7.983-7.387,5.863-4.406,12.819-5.432,31.9-4.737,14.608.563,58.067.861,59.16.43.729-.3,5.764-11.825,38.59-88.541,20.736-48.527,38.06-89.038,38.49-90,.4-.928.629-1.723.5-1.723s-7.089,7.089-15.469,15.767-16.96,17.424-19.08,19.477c-3.677,3.544-17.953,18.351-37.066,38.457-5,5.267-16.1,16.761-24.678,25.506-8.546,8.778-18.748,19.311-22.657,23.386-23.883,24.976-53.231,55.185-53.43,55.02-.762-.762-11.3-55.715-31.071-162.044-3.478-18.682-8.149-43.194-10.434-54.489-3.942-19.643-7.122-36.3-7.619-39.683-.232-1.855-.994-1.723,6.625-1.06,21.067,1.855,40.776,5.432,93.576,17.026,31.336,6.857,45.612,9.8,50.846,10.467l1.656.2-1.325-1.192c-1.623-1.491-24.711-13.084-36.139-18.152-37.2-16.463-76.484-28.553-107.787-33.19-4.472-.663-9.242-1.458-10.6-1.756l-2.484-.563-.364-1.656c-.2-.927-6.459-31.2-13.912-67.342C580.424-3053.453,574.23-3083,574.1-3083,573.931-3083,573.832-3059.184,573.832-3030.1Zm-.431,164.462c-.132,31.766-.331,103.779-.431,160.09-.132,56.278-.331,102.553-.431,102.785-.166.265-2.716-1.656-7.817-5.962-14.608-12.19-43.459-36.238-48.891-40.709-6.559-5.4-12.72-11-14.21-12.885l-1.06-1.358-3.047-49.521-3.014-49.554L422.62-2792.7c-39.517-16.463-72.31-30.11-72.807-30.342l-.927-.43,10.037-9.739c10.07-9.771,13.581-12.819,29.414-25.075,17.457-13.581,31.038-22.028,52.3-32.561,41.77-20.669,86.454-32.13,126.535-32.461l6.426-.033Zm-222.927,53.231c8.215,7.817,24.512,24.247,90.694,91.423,31.634,32.13,57.4,58.531,57.239,58.663-.4.364-243.232,43.194-243.464,42.929-.265-.265.4-8.48,1.259-15.1,4.406-34.184,17.49-74.794,35.609-110.635a241.746,241.746,0,0,1,24.711-39.65c7.155-9.54,19.808-25.473,22.79-28.752a50.987,50.987,0,0,0,3.544-4.207c.431-.7.662-.828,1.159-.563C344.314-2818.138,347.229-2815.488,350.475-2812.408ZM565.22-2574.741c-1.722,1.689-17.821,17.291-35.774,34.648-17.953,17.324-36.437,35.377-41.074,40.081-6.658,6.724-8.712,8.646-9.739,8.943-1.358.431-.662.464-27.526-1.159-16.993-1.027-27.427-1.49-34.284-1.49h-5.5L385.355-2422.1c-14.277,39.418-26,71.714-26.036,71.781-.6.729-14.277-11.892-22.591-20.8-20.371-21.928-35.476-43.227-48.593-68.766-16.86-32.727-29.58-76.418-33.456-114.842-.5-4.9-1.325-20.106-1.126-20.272.132-.1,285.333-2.716,304.711-2.815l10.1-.033Zm20.868-2.782a11.84,11.84,0,0,1,2.153,2.385c.861,1.126,5.7,6.724,10.732,12.488,33.157,37.828,53.463,61.744,53.893,63.466.066.364,2.716,18.616,5.9,40.511,4.174,29.216,5.83,39.948,6.194,40.18.265.133,36.006,17.39,79.465,38.292,43.459,20.868,79.068,38.06,79.167,38.126.464.364-5.565,5.167-12.256,9.739-9.374,6.426-35.542,22.458-47.368,29.083-6.923,3.842-22.127,11.428-28.818,14.376-30.143,13.283-58.763,21.2-86.786,24.015-12.852,1.292-18.053,1.524-35.609,1.524-17.523,0-22.193-.232-30.143-1.59l-2.319-.4-.2-10.269c-.232-12.554-.331-300.868-.1-301.7.166-.464.6-.563,2.816-.563A10.976,10.976,0,0,1,586.088-2577.523ZM503.94-2431.28c5.929,32.5,11.726,62.9,15.072,79.333,9.109,44.784,14.012,69.561,15.171,76.915.364,2.219.364,2.915.066,2.915-.2,0-3.511-.53-7.32-1.159-42.664-7.022-87.779-23.121-121.8-43.459-15.171-9.076-38.093-25.472-37.629-26.9.166-.464,84.136-94.04,108.581-121.036,9.937-10.931,18.086-19.742,18.119-19.576C494.268-2484.08,498.64-2460.263,503.94-2431.28Z" transform="translate(0)" fill="#fff"/></g></svg>